<?xml version="1.0" encoding="utf-8"?>
<!-- Generator: Adobe Illustrator 19.0.0, SVG Export Plug-In . SVG Version: 6.00 Build 0)  -->
<svg version="1.1" id="Layer_1" xmlns="http://www.w3.org/2000/svg" xmlns:xlink="http://www.w3.org/1999/xlink" x="0px" y="0px"
	 viewBox="-227 364 157 65" style="enable-background:new -227 364 157 65;" xml:space="preserve">
<style type="text/css">
	.st0{fill:#FFFFFF;}
	.st1{fill:#CB2026;}
	.st2{fill:#293787;}
	.st3{enable-background:new    ;}
</style>
<g>
	<g>
		<path class="st0" d="M-174.9,407.3c0,0.5,0.2,0.9,0.4,1.2c-0.2,0.3-0.3,0.7-0.3,1.2v1.4c0,0.7,0.2,1.2,0.7,1.6l-0.1,0.1H-72
			c0.5-0.3,0.8-1,0.8-1.6v-1.4c0-1.1-0.8-1.9-1.9-2l2.5-3c0.5-0.6,0.6-1.4,0.2-2.1c-0.3-0.7-1.1-1.2-1.8-1.2h-1.6V391l3.3-3.9
			c0.3-0.3,0.5-0.8,0.5-1.3c0-1.2-0.9-2-2-2l0,0h-1.8v-5.9c0-0.8-0.5-1.6-1.2-1.9c-0.2-0.1-0.5-0.2-0.8-0.2c-0.5,0-1,0.2-1.4,0.6
			l-4.3,4.1c-0.4,0.4-0.6,0.9-0.6,1.5v5.6l-2.7-4c-0.3-0.5-0.9-0.8-1.5-0.8c-0.1,0-0.1,0-0.2,0c-0.6,0-1.1,0.2-1.4,0.6l-6.7,6.8
			c-0.1,0.1-0.1,0.2-0.2,0.2v-2c0-0.4-0.2-0.9-0.4-1.2l-2.8-3.6c-0.3-0.5-0.9-0.7-1.5-0.7h-0.1c-0.6,0-1.1,0.2-1.5,0.6l-1.2,1.3
			c0-0.7-0.5-1.5-1.2-1.7c-0.2-0.1-0.5-0.2-0.7-0.2c-0.6,0-1.1,0.2-1.5,0.7l-4.3,4.4c-0.3,0.4-0.6,0.9-0.6,1.4v14.2l0,0
			c0-0.3,0-0.7-0.2-1c-0.3-0.7-1.1-1.2-1.8-1.2h-0.6v-12.9c0-0.5-0.2-0.9-0.5-1.3l-3-3.7c-0.3-0.4-0.9-0.7-1.4-0.7
			c-0.1,0-0.1,0-0.2,0c-0.5,0-1,0.2-1.4,0.6l-2.6,2.5l-1.8-2.2c-0.3-0.4-0.9-0.7-1.5-0.7h-0.1c-0.6,0-1.1,0.2-1.4,0.6l-0.5,0.6
			c-0.2-0.4-0.6-0.8-1.1-1c-0.2-0.1-0.5-0.2-0.7-0.2c-0.6,0-1.1,0.2-1.5,0.7l-4.3,4.5c-0.2,0.2-0.3,0.5-0.4,0.7
			c-0.1-0.2-0.2-0.5-0.4-0.7l-4.4-4.6c-0.4-0.4-0.9-0.6-1.5-0.6c-0.5,0-0.9,0.2-1.3,0.5l-7.1,5.9v-0.7c0-0.4-0.2-0.9-0.4-1.2
			l-2.8-3.6c-0.2-0.2-0.3-0.4-0.6-0.5l14.9-14.2c0.7-0.7,0.8-1.9,0.2-2.7c-0.4-0.5-1-0.7-1.6-0.7c-0.4,0-0.8,0.1-1.2,0.3l-25,16.9
			v-4.9c0-0.8-0.5-1.6-1.2-1.8c-0.2-0.1-0.5-0.2-0.8-0.2c-0.5,0-1,0.2-1.4,0.6l-4.3,4.1c-0.4,0.4-0.7,0.9-0.7,1.5v5.7l-2.8-4
			c-0.3-0.5-0.9-0.8-1.5-0.8c-0.1,0-0.1,0-0.2,0c-0.6,0-1.1,0.2-1.5,0.6l-6.6,6.8c-0.1,0.1-0.2,0.2-0.2,0.3v-5.8c0-0.1,0-0.2,0-0.2
			c3.2-1.3,5.5-4.4,5.5-8.2c0-4.9-3.9-8.9-8.9-8.9c-4.8-0.1-8.7,3.9-8.7,8.8c0,2.5,1.1,4.8,2.7,6.3h-1.5v0.1c-0.2,0-0.2,0-0.4,0
			h-25.4c-0.9,0-1.6,0.6-1.9,1.4s0,1.7,0.7,2.2c10.3,7.3,16.3,17.2,19.6,24.1c3.5,7.6,4.7,13.5,4.7,13.6c0.2,0.7,0.7,1.3,1.4,1.6
			c0.2,0.1,0.4,0.1,0.6,0.1c0.5,0,1-0.2,1.4-0.6l16.1-15.6c0.2-0.2,0.2-0.2,0.3-0.4h2.1c0.6,0,1.1-0.2,1.5-0.7l3-3.2L-174.9,407.3
			L-174.9,407.3z"/>
		<rect x="-185.2" y="401.1" class="st0" width="12.9" height="11.8"/>
		<polygon class="st0" points="-71.2,422.6 -189.2,422.4 -190.6,410.8 -71.2,410.8 		"/>
		<g>
			<path class="st1" d="M-80,407.3h4.7l3.1-4h-3.5v-13.1l3.9-4.4h-3.9v-7.9L-80,382V407.3 M-88.8,397.9v-9.4l3.5,5.3L-88.8,397.9
				 M-93,407.3h6.5l3.7-4h-6v-4l6.8-8.1l-4.4-6.4l-6.7,6.8L-93,407.3 M-108.5,407.3h4.3v-16.5l1.9-1.8l1.5,1.8v16.4h3.6l3.1-4h-2.6
				v-14.8l-2.8-3.6l-4.7,4.9v-4.9l-4.3,4.4V407.3 M-73.2,411h-99.6v-1.4h99.6V411"/>
			<path class="st1" d="M-184.2,376.4c0,3.8-3,6.8-6.8,6.8s-6.8-3-6.8-6.8c0-3.9,3-6.8,6.8-6.8
				C-187.3,369.5-184.2,372.6-184.2,376.4L-184.2,376.4 M-187,399.3l-1.7,1.2v1.8h1.7V399.3"/>
			<path class="st2" d="M-133.7,389.3l4.3-4.5v3.9l3.8-3.9l3.1,4l4.2-4l3,3.7v14.8h2.6l-3.1,4h-3.5v-16.2l-1.9-2.3l-1.2,1.2v17.4h-4
				v-16.5l-1.9-2.1l-1.2,1.2v17.4h-4.3v-18.1 M-148.8,397.9l7.3-6.6l-2.9-3.1v3.3h-4.6v-0.7l7.2-5.9l4.4,4.6v13.9h2.7l-3.1,4h-3.7
				V404l-3.8,3.3h-3.5V397.9 M-141.6,403.4v-10.9l-3,2.8v8L-141.6,403.4 M-164.1,389.3l4.3-4.5v4.9l4.8-4.9l2.8,3.6v14.9h2.6l-3,4
				h-3.6v-16.5l-1.6-1.8l-2,1.8v16.5h-4.3L-164.1,389.3 M-172.9,382l4.3-4.1v7.9h3.8l-3.8,4.4v13.2h3.5l-3.1,4h-4.7V382 M-186,391.7
				l6.6-6.8l4.5,6.4l-6.8,8.1v4h5.9l-3.7,4h-6.5V391.7 M-178.2,393.8l-3.5-5.4v9.5L-178.2,393.8 M-193.9,389.3l4.2-4.5v18.5h2.6
				l-3,4h-3.7L-193.9,389.3"/>
			<polygon class="st1" points="-180.7,399.7 -173.9,391.7 -173.9,399.3 -177.1,402.4 -180.7,402.4 			"/>
			<polygon class="st1" points="-167.7,393.3 -165.3,391 -165.1,388.9 -158.9,382.3 -158.9,384.8 -140.6,367.5 -166,384.8 
				-162.7,384.8 -167.7,390.5 			"/>
			<path class="st1" d="M-183.3,408.3l-16.1,15.5c0,0-4.4-24.2-25.1-39.1h25.4v22.8l4.1-2.9v3.5h5.2l2.7-3.5v3.5h3.8L-183.3,408.3
				L-183.3,408.3z"/>
		</g>
	</g>
	<g>
		<g>
			<g>
				<path class="st2" d="M-186.8,422.2l0.1,0.4l0,0l0.1-0.4l1.5-5h1.5l-2.3,6.8h-1.4l-2.3-6.8h1.5L-186.8,422.2z"/>
				<path class="st0" d="M-186,425.8h-1.4c-0.8,0-1.5-0.5-1.7-1.2l-2.3-6.8c-0.2-0.5-0.1-1.2,0.2-1.6c0.3-0.5,0.9-0.7,1.5-0.7h1.5
					c0.7,0,1.3,0.4,1.6,1c0.3-0.6,0.9-1,1.6-1h1.5c0.6,0,1.1,0.3,1.5,0.7c0.3,0.5,0.4,1.1,0.2,1.6l-2.3,6.8
					C-184.7,425.3-185.3,425.8-186,425.8z"/>
			</g>
			<g>
				<path class="st2" d="M-181.6,416.6h-1.2l-1.3-1.2l0,0h1.6L-181.6,416.6z M-181.6,424h-1.4v-6.8h1.4V424z"/>
				<path class="st0" d="M-181.6,425.8h-1.4c-1,0-1.8-0.8-1.8-1.8v-6.8v-0.1l-0.6-0.6c-0.5-0.5-0.7-1.2-0.5-1.9
					c0.2-0.7,0.9-1.3,1.7-1.3h1.6c0.6,0,1.1,0.3,1.4,0.7l0.9,1.3c0.3,0.4,0.4,0.9,0.3,1.3c0,0.1,0,0.3,0,0.4v6.8
					C-179.9,425-180.7,425.8-181.6,425.8z"/>
			</g>
			<g>
				<path class="st2" d="M-176.1,422.2l0.1,0.4l0,0l0.1-0.4l1.5-5h1.5l-2.3,6.8h-1.4l-2.3-6.8h1.5L-176.1,422.2z"/>
				<path class="st0" d="M-175.2,425.8h-1.4c-0.8,0-1.5-0.5-1.7-1.2l-2.3-6.8c-0.2-0.5-0.1-1.2,0.2-1.6c0.3-0.5,0.9-0.7,1.5-0.7h1.5
					c0.7,0,1.3,0.4,1.6,1c0.3-0.6,0.9-1,1.6-1h1.4c0.6,0,1.1,0.3,1.5,0.7c0.3,0.5,0.4,1.1,0.2,1.6l-2.3,6.8
					C-173.9,425.3-174.6,425.8-175.2,425.8z"/>
			</g>
			<g>
				<path class="st2" d="M-170.9,424h-1.4v-6.8h1.4V424z"/>
				<path class="st0" d="M-170.9,425.8h-1.4c-1,0-1.8-0.8-1.8-1.8v-6.8c0-1,0.8-1.8,1.8-1.8h1.4c1,0,1.8,0.8,1.8,1.8v6.8
					C-169.1,425-169.9,425.8-170.9,425.8z"/>
			</g>
			<g>
				<path class="st2" d="M-165.6,421.1h-2.5v2h3v1h-4.4v-6.8h4.4v1.1h-3v1.8h2.5V421.1z M-165.6,416.5L-165.6,416.5l-1.1,0.1
					l-0.7-0.6l-0.7,0.6h-1.1v-0.1l1.4-1.1h0.8L-165.6,416.5z M-166.6,425.7h-1.6v-1.2h1.6V425.7z"/>
				<path class="st0" d="M-166.6,427.4h-1.6c-1,0-1.7-0.7-1.8-1.7c-0.8-0.2-1.5-0.9-1.5-1.8v-6.8c0-0.5,0.2-1,0.6-1.3
					c0.1-0.3,0.3-0.6,0.6-0.8l1.4-1.1c0.3-0.3,0.7-0.4,1.2-0.4h0.8c0.4,0,0.8,0.2,1.2,0.4l1.4,1.2c0.3,0.2,0.5,0.5,0.6,0.9
					c0.3,0.3,0.5,0.8,0.5,1.3v1.1c0,0.5-0.2,1-0.5,1.3c0,0.1,0.1,0.3,0.1,0.5v0.9c0,0.2,0,0.4-0.1,0.6c0.4,0.3,0.6,0.8,0.6,1.3v1.1
					c0,0.9-0.6,1.6-1.5,1.8C-164.9,426.7-165.6,427.4-166.6,427.4z"/>
			</g>
			<g>
				<path class="st2" d="M-159.4,418.3h-2v5.8h-1.4v-5.8h-2v-1.1h5.3V418.3z"/>
				<path class="st0" d="M-161.4,425.8h-1.4c-1,0-1.8-0.8-1.8-1.8v-4h-0.2c-1,0-1.8-0.8-1.8-1.8v-1.1c0-1,0.8-1.8,1.8-1.8h5.3
					c1,0,1.8,0.8,1.8,1.8v1.1c0,1-0.8,1.8-1.8,1.8h-0.2v4C-159.6,425-160.4,425.8-161.4,425.8z"/>
			</g>
			<g>
				<path class="st2" d="M-150.8,424h-1.4l-2.7-4.6l0,0v4.6h-1.4v-6.8h1.4l2.7,4.6l0,0v-4.6h1.4V424z"/>
				<path class="st0" d="M-150.8,425.8h-1.4c-0.6,0-1.1-0.3-1.4-0.7c-0.3,0.4-0.8,0.7-1.4,0.7h-1.4c-1,0-1.8-0.8-1.8-1.8v-6.8
					c0-1,0.8-1.8,1.8-1.8h1.4c0.6,0,1.1,0.3,1.4,0.7c0.3-0.4,0.8-0.7,1.4-0.7h1.4c1,0,1.8,0.8,1.8,1.8v6.8
					C-149.1,425-149.8,425.8-150.8,425.8z"/>
			</g>
			<g>
				<path class="st2" d="M-145.9,422.6h-2.2l-0.4,1.5h-1.5l2.3-6.8h1.4l2.2,6.8h-1.5L-145.9,422.6z M-147.8,421.5h1.6l-0.8-2.4l0,0
					L-147.8,421.5z"/>
				<path class="st0" d="M-144,425.8h-1.5c-0.7,0-1.3-0.4-1.6-1c-0.3,0.6-0.9,1-1.6,1h-1.5c-0.6,0-1.1-0.3-1.5-0.7
					c-0.3-0.5-0.4-1.1-0.2-1.6l2.3-6.8c0.2-0.7,0.9-1.2,1.7-1.2h1.4c0.8,0,1.5,0.5,1.7,1.2l2.2,6.8c0.2,0.5,0.1,1.1-0.2,1.6
					C-142.9,425.5-143.4,425.8-144,425.8z"/>
			</g>
			<g>
				<path class="st2" d="M-139.8,422.3L-139.8,422.3l1.8-5h1.8v6.8h-1.4v-4.7l0,0l-1.7,4.7h-0.9l-1.7-4.7l0,0v4.6h-1.4v-6.8h1.8
					L-139.8,422.3z"/>
				<path class="st0" d="M-136.3,425.8h-1.4c-0.3,0-0.6-0.1-0.9-0.2c-0.3,0.1-0.6,0.2-0.9,0.2h-0.9c-0.3,0-0.6-0.1-0.9-0.2
					c-0.3,0.1-0.6,0.2-0.9,0.2h-1.4c-1,0-1.8-0.8-1.8-1.8v-6.8c0-1,0.8-1.8,1.8-1.8h1.8c0.8,0,1.4,0.5,1.7,1.2l0.1,0.3l0.1-0.3
					c0.3-0.7,0.9-1.2,1.7-1.2h1.8c1,0,1.8,0.8,1.8,1.8v6.8C-134.5,425-135.3,425.8-136.3,425.8z"/>
			</g>
			<g>
				<path class="st2" d="M-127.1,424h-1.4v-2.8h-2.7v2.8h-1.4v-6.8h1.4v2.9h2.7v-2.9h1.4V424z"/>
				<path class="st0" d="M-127.1,425.8h-1.4c-0.6,0-1.1-0.3-1.4-0.7c-0.3,0.4-0.8,0.7-1.4,0.7h-1.4c-1,0-1.8-0.8-1.8-1.8v-6.8
					c0-1,0.8-1.8,1.8-1.8h1.4c0.6,0,1.1,0.3,1.4,0.7c0.3-0.4,0.8-0.7,1.4-0.7h1.4c1,0,1.8,0.8,1.8,1.8v6.8
					C-125.3,425-126.1,425.8-127.1,425.8z"/>
			</g>
			<g>
				<path class="st2" d="M-120.4,417.3v4.5c0,0.8-0.3,1.4-0.8,1.8c-0.5,0.4-1.2,0.7-2,0.7s-1.5-0.2-2-0.7c-0.5-0.4-0.8-1.1-0.8-1.8
					v-4.5h1.4v4.5c0,0.5,0.1,0.8,0.4,1.1c0.2,0.2,0.6,0.4,1,0.4s0.8-0.1,1-0.4c0.3-0.2,0.4-0.6,0.4-1.1v-4.5H-120.4z M-122.6,416.6
					h-1.2l-1.3-1.2l0,0h1.6L-122.6,416.6z"/>
				<path class="st0" d="M-123.2,425.9c-1.3,0-2.2-0.4-3.1-1.1c-0.6-0.5-1.4-1.5-1.4-3.1v-4.5c0-0.7,0.4-1.3,1-1.6
					c-0.1-0.3,0-0.6,0.1-0.9c0.2-0.7,0.9-1.3,1.7-1.3h1.6c0.6,0,1.1,0.3,1.4,0.7l0.9,1.2h0.7c1,0,1.8,0.8,1.8,1.8v4.5
					c0,1.3-0.5,2.3-1.4,3.1C-120.9,425.6-122,425.9-123.2,425.9z"/>
			</g>
			<g>
				<path class="st2" d="M-113.8,424h-1.4l-2.7-4.6l0,0v4.6h-1.4v-6.8h1.4l2.7,4.6l0,0v-4.6h1.4L-113.8,424L-113.8,424z"/>
				<path class="st0" d="M-113.8,425.8h-1.4c-0.6,0-1.1-0.3-1.4-0.7c-0.3,0.4-0.8,0.7-1.4,0.7h-1.4c-1,0-1.8-0.8-1.8-1.8v-6.8
					c0-1,0.8-1.8,1.8-1.8h1.4c0.6,0,1.1,0.3,1.4,0.7c0.3-0.4,0.8-0.7,1.4-0.7h1.4c1,0,1.8,0.8,1.8,1.8v6.8
					C-112,425-112.8,425.8-113.8,425.8z"/>
			</g>
			<g>
				<path class="st2" d="M-107.4,423.1c-0.2,0.3-0.5,0.5-1,0.7c-0.4,0.2-1,0.3-1.7,0.3c-0.8,0-1.5-0.3-2.1-0.8
					c-0.5-0.5-0.8-1.2-0.8-2.1v-1.5c0-0.8,0.3-1.5,0.8-2.1c0.5-0.5,1.2-0.8,2-0.8c0.9,0,1.5,0.2,2,0.6s0.7,0.9,0.7,1.6l0,0h-1.3
					c0-0.4-0.1-0.7-0.3-0.9c-0.2-0.2-0.5-0.3-0.9-0.3c-0.4,0-0.8,0.2-1,0.5c-0.3,0.3-0.4,0.8-0.4,1.3v1.5c0,0.5,0.1,1,0.4,1.3
					s0.6,0.5,1.1,0.5c0.3,0,0.6,0,0.8-0.1c0.2-0.1,0.3-0.2,0.4-0.3v-1.4h-1.3v-1h2.6L-107.4,423.1L-107.4,423.1z"/>
				<path class="st0" d="M-109.9,425.9c-1.3,0-2.4-0.5-3.2-1.3c-0.9-0.9-1.3-2-1.3-3.2v-1.5c0-1.3,0.4-2.4,1.3-3.2
					c0.9-0.9,2-1.3,3.2-1.3s2.3,0.4,3.1,1.1c0.9,0.8,1.3,1.8,1.3,2.9c0,0.1,0,0.3-0.1,0.4c0.1,0.2,0.2,0.5,0.2,0.8v2.6
					c0,0.4-0.1,0.8-0.4,1.1c-0.4,0.5-0.9,0.9-1.6,1.3C-108.1,425.8-108.9,425.9-109.9,425.9z"/>
			</g>
			<g>
				<path class="st2" d="M-99.6,421.8L-99.6,421.8c0,0.8-0.2,1.4-0.7,1.8c-0.5,0.4-1.1,0.6-1.9,0.6s-1.5-0.3-2-0.8
					c-0.5-0.5-0.8-1.2-0.8-2.1v-1.4c0-0.8,0.3-1.5,0.8-2.1c0.5-0.5,1.2-0.8,2-0.8s1.5,0.2,2,0.6s0.7,1,0.7,1.8l0,0h-1.4
					c0-0.4-0.1-0.8-0.3-1c-0.2-0.2-0.5-0.3-1-0.3c-0.4,0-0.7,0.2-1,0.5c-0.2,0.3-0.4,0.8-0.4,1.3v1.4c0,0.5,0.1,1,0.4,1.3
					c0.2,0.3,0.6,0.5,1,0.5s0.7-0.1,0.9-0.3c0.2-0.2,0.3-0.6,0.3-1H-99.6z"/>
				<path class="st0" d="M-102.2,425.9c-0.1,0-0.2,0-0.3,0c-1.2-0.1-2.2-0.5-2.9-1.4c-0.8-0.9-1.3-2-1.3-3.2v-1.4
					c0-1.3,0.4-2.3,1.2-3.2c0.8-0.9,2-1.4,3.2-1.4s2.3,0.4,3.1,1.1c0.6,0.5,1.3,1.5,1.3,3c0,0.2,0,0.4-0.1,0.5
					c-0.1,0.2-0.2,0.5-0.4,0.6c0.2,0.2,0.3,0.4,0.4,0.6l0,0c0.1,0.2,0.1,0.4,0.1,0.5c0,1.6-0.7,2.5-1.3,3
					C-99.9,425.6-100.9,425.9-102.2,425.9z"/>
			</g>
			<g>
				<path class="st2" d="M-93.3,417.3v0.9l0,0c0.3-0.1,0.5-0.2,0.6-0.5s0.2-0.6,0.2-1.1h1c0,0.7-0.1,1.3-0.4,1.7
					c-0.3,0.4-0.7,0.7-1.4,0.8v2.7c0,0.8-0.3,1.4-0.8,1.8c-0.5,0.4-1.2,0.7-2,0.7s-1.5-0.2-2-0.7c-0.5-0.4-0.8-1.1-0.8-1.8v-4.5h1.4
					v4.5c0,0.5,0.1,0.8,0.4,1.1c0.2,0.2,0.6,0.4,1,0.4s0.8-0.1,1-0.4c0.3-0.2,0.4-0.6,0.4-1.1v-4.5
					C-94.7,417.3-93.3,417.3-93.3,417.3z"/>
				<path class="st0" d="M-96,425.9c-1.3,0-2.2-0.4-3.1-1.1c-0.6-0.5-1.4-1.5-1.4-3.1v-4.5c0-1,0.8-1.8,1.8-1.8h1.4
					c0.6,0,1.1,0.3,1.4,0.7c0.3-0.4,0.8-0.7,1.4-0.7h0.7c0.3-0.4,0.8-0.7,1.4-0.7h1c1,0,1.8,0.8,1.8,1.8c0,1.1-0.3,2-0.8,2.7
					c-0.2,0.3-0.6,0.7-1,1v1.5c0,1.3-0.5,2.3-1.4,3.1C-93.7,425.6-94.8,425.9-96,425.9z"/>
			</g>
			<g>
				<path class="st2" d="M-86.3,421.3c0,0.9-0.3,1.6-0.8,2.1c-0.5,0.6-1.2,0.8-2.1,0.8c-0.9,0-1.6-0.3-2.1-0.8
					c-0.5-0.6-0.8-1.3-0.8-2.1V420c0-0.9,0.3-1.6,0.8-2.1c0.5-0.6,1.2-0.8,2.1-0.8c0.4,0,0.8,0.1,1.2,0.2c0.4,0.1,0.7,0.4,0.9,0.6
					c0.3-0.1,0.6-0.3,0.7-0.5c0.2-0.3,0.3-0.6,0.3-1h1c0,0.6-0.1,1.1-0.4,1.5c-0.3,0.4-0.6,0.7-1.1,0.9c0.1,0.2,0.1,0.4,0.2,0.6
					c0,0.2,0.1,0.4,0.1,0.7L-86.3,421.3L-86.3,421.3z M-88.4,416.6h-1.2l-1.3-1.2l0,0h1.6L-88.4,416.6z M-87.7,420
					c0-0.5-0.1-1-0.4-1.3c-0.3-0.3-0.6-0.5-1.1-0.5s-0.8,0.2-1.1,0.5c-0.3,0.3-0.4,0.8-0.4,1.3v1.3c0,0.6,0.1,1,0.4,1.4
					c0.3,0.3,0.6,0.5,1.1,0.5s0.9-0.2,1.1-0.5c0.3-0.3,0.4-0.8,0.4-1.4V420z"/>
				<path class="st0" d="M-89.2,425.9c-1.3,0-2.4-0.5-3.3-1.4c-0.9-0.9-1.3-2.1-1.3-3.3v-1.3c0-1.3,0.4-2.4,1.3-3.3
					c0.1-0.1,0.2-0.2,0.3-0.3c-0.4-0.5-0.5-1.1-0.3-1.7c0.2-0.7,0.9-1.3,1.7-1.3h1.6c0.6,0,1.1,0.3,1.4,0.7l0.6,0.9
					c0.3-0.3,0.7-0.5,1.2-0.5h1c1,0,1.8,0.8,1.8,1.8c0,0.9-0.2,1.8-0.6,2.4c-0.2,0.3-0.4,0.5-0.6,0.7c0,0.1,0,0.3,0,0.4v1.3
					c0,1.3-0.5,2.4-1.3,3.3C-86.7,425.4-87.9,425.9-89.2,425.9z"/>
			</g>
			<g>
				<path class="st2" d="M-79.6,424H-81l-2.7-4.6l0,0v4.6h-1.4v-6.8h1.4l2.7,4.6l0,0v-4.6h1.4V424L-79.6,424z"/>
				<path class="st0" d="M-79.6,425.8H-81c-0.6,0-1.1-0.3-1.4-0.7c-0.3,0.4-0.8,0.7-1.4,0.7h-1.4c-1,0-1.8-0.8-1.8-1.8v-6.8
					c0-1,0.8-1.8,1.8-1.8h1.4c0.6,0,1.1,0.3,1.4,0.7c0.3-0.4,0.8-0.7,1.4-0.7h1.4c1,0,1.8,0.8,1.8,1.8v6.8
					C-77.9,425-78.6,425.8-79.6,425.8z"/>
			</g>
			<g>
				<path class="st2" d="M-73.2,423.1c-0.2,0.3-0.5,0.5-1,0.7c-0.4,0.2-1,0.3-1.7,0.3c-0.8,0-1.5-0.3-2.1-0.8
					c-0.5-0.5-0.8-1.2-0.8-2.1v-1.5c0-0.8,0.3-1.5,0.8-2.1c0.5-0.5,1.2-0.8,2-0.8c0.9,0,1.5,0.2,2,0.6s0.7,0.9,0.7,1.6l0,0h-1.3
					c0-0.4-0.1-0.7-0.3-0.9c-0.2-0.2-0.5-0.1-1-0.1c-0.4,0-0.8,0.2-1,0.5c-0.3,0.3-0.4,0.8-0.4,1.3v1.5c0,0.5,0.1,1,0.4,1.3
					s0.6,0.5,1.1,0.5c0.3,0,0.6,0,0.8-0.1s0.3-0.2,0.4-0.3v-1.4h-1.3v-1h2.6C-73.2,420.4-73.2,423.1-73.2,423.1z"/>
				<path class="st0" d="M-75.7,425.9c-1.3,0-2.4-0.5-3.2-1.3c-0.9-0.9-1.3-2-1.3-3.2v-1.5c0-1.3,0.4-2.4,1.3-3.2
					c0.9-0.9,2-1.3,3.2-1.3c1.3,0,2.3,0.4,3.1,1.1c0.9,0.8,1.3,1.8,1.3,2.9c0,0.1,0,0.3-0.1,0.4c0.1,0.2,0.2,0.5,0.2,0.8v2.6
					c0,0.4-0.1,0.8-0.4,1.1c-0.4,0.5-0.9,0.9-1.6,1.3C-73.9,425.8-74.7,425.9-75.7,425.9z"/>
			</g>
		</g>
		<g class="st3">
			<path class="st2" d="M-187.1,422.3l0.1,0.4l0,0l0.1-0.4l1.5-5h1.5l-2.3,6.8h-1.4l-2.3-6.8h1.5L-187.1,422.3z"/>
			<path class="st2" d="M-181.9,416.7h-1.2l-1.3-1.2l0,0h1.6L-181.9,416.7z M-181.9,424.1h-1.4v-6.8h1.4V424.1z"/>
			<path class="st2" d="M-175.7,422.2l0.1,0.4l0,0l0.1-0.4l1.5-5h1.5l-2.3,6.8h-1.4l-2.3-6.8h1.5L-175.7,422.2z"/>
			<path class="st2" d="M-170.4,424.1h-1.4v-6.8h1.4V424.1z"/>
			<path class="st2" d="M-165.1,421.1h-2.5v2h3v1.1h-4.4v-6.8h4.4v1.1h-3v1.8h2.5V421.1z M-165.1,416.5L-165.1,416.5l-1.1,0.1
				l-0.7-0.6l-0.7,0.6h-1.1v-0.1l1.4-1.1h0.8L-165.1,416.5z M-166.1,425.7h-1.6v-1.2h1.6V425.7z"/>
			<path class="st2" d="M-159,418.3h-2v5.8h-1.4v-5.8h-2v-1.1h5.3V418.3z"/>
			<path class="st2" d="M-150.4,424.1h-1.4l-2.7-4.6l0,0v4.6h-1.4v-6.8h1.4l2.7,4.6l0,0v-4.6h1.4V424.1z"/>
			<path class="st2" d="M-145.5,422.6h-2.2l-0.5,1.5h-1.5l2.3-6.8h1.4l2.2,6.8h-1.5L-145.5,422.6z M-147.3,421.5h1.6l-0.8-2.4l0,0
				L-147.3,421.5z"/>
			<path class="st2" d="M-139.3,422.3L-139.3,422.3l1.8-5h1.8v6.8h-1.4v-4.7l0,0l-1.7,4.7h-0.9l-1.7-4.7l0,0v4.7h-1.4v-6.8h1.8
				L-139.3,422.3z"/>
			<path class="st2" d="M-126.6,424.1h-1.4v-2.8h-2.7v2.8h-1.4v-6.8h1.4v2.9h2.7v-2.9h1.4V424.1z"/>
			<path class="st2" d="M-120,417.3v4.5c0,0.8-0.3,1.4-0.8,1.8s-1.2,0.7-2,0.7c-0.8,0-1.5-0.2-2-0.7c-0.5-0.4-0.8-1.1-0.8-1.8v-4.5
				h1.4v4.5c0,0.5,0.1,0.8,0.4,1.1c0.2,0.2,0.6,0.4,1,0.4c0.4,0,0.8-0.1,1-0.4c0.2-0.3,0.4-0.6,0.4-1.1v-4.5H-120z M-122.1,416.6
				h-1.2l-1.3-1.2l0,0h1.6L-122.1,416.6z"/>
			<path class="st2" d="M-113.3,424.1h-1.4l-2.7-4.6l0,0v4.6h-1.4v-6.8h1.4l2.7,4.6l0,0v-4.6h1.4
				C-113.3,417.2-113.3,424.1-113.3,424.1z"/>
			<path class="st2" d="M-106.9,423.2c-0.2,0.3-0.5,0.5-1,0.7c-0.4,0.2-1,0.3-1.7,0.3c-0.8,0-1.5-0.3-2.1-0.8
				c-0.6-0.5-0.8-1.2-0.8-2.1v-1.5c0-0.8,0.3-1.5,0.8-2.1c0.5-0.6,1.2-0.8,2-0.8c0.9,0,1.5,0.2,2,0.6c0.5,0.4,0.7,0.9,0.7,1.6l0,0
				h-1.3c0-0.4-0.1-0.7-0.3-0.9c-0.2-0.2-0.5-0.3-0.9-0.3s-0.8,0.2-1,0.5s-0.4,0.8-0.4,1.3v1.5c0,0.5,0.1,1,0.4,1.3
				c0.3,0.3,0.6,0.5,1.1,0.5c0.3,0,0.6,0,0.8-0.1s0.3-0.2,0.4-0.3v-1.3h-1.3v-1h2.6L-106.9,423.2L-106.9,423.2z"/>
			<path class="st2" d="M-99.2,421.8L-99.2,421.8c0,0.8-0.2,1.4-0.7,1.8s-1.1,0.6-1.9,0.6c-0.8,0-1.5-0.3-2-0.8
				c-0.5-0.5-0.8-1.2-0.8-2.1V420c0-0.8,0.3-1.5,0.8-2.1c0.5-0.6,1.2-0.8,2-0.8s1.5,0.2,2,0.6c0.5,0.4,0.7,1,0.7,1.8l0,0h-1.4
				c0-0.4-0.1-0.8-0.3-1c-0.2-0.2-0.5-0.3-1-0.3c-0.4,0-0.7,0.2-1,0.5c-0.2,0.3-0.4,0.8-0.4,1.3v1.4c0,0.5,0.1,1,0.4,1.3
				c0.2,0.3,0.6,0.5,1,0.5s0.7-0.1,0.9-0.3c0.2-0.2,0.3-0.6,0.3-1H-99.2z"/>
			<path class="st2" d="M-92.8,417.3v0.9l0,0c0.3-0.1,0.5-0.2,0.6-0.5c0.1-0.3,0.2-0.6,0.2-1.1h1c0,0.7-0.1,1.3-0.4,1.7
				c-0.3,0.4-0.7,0.7-1.4,0.8v2.7c0,0.8-0.3,1.4-0.8,1.8c-0.5,0.4-1.2,0.7-2,0.7s-1.5-0.2-2-0.7c-0.5-0.5-0.8-1.1-0.8-1.8v-4.5h1.4
				v4.5c0,0.5,0.1,0.8,0.4,1.1c0.3,0.3,0.6,0.4,1,0.4s0.8-0.1,1-0.4s0.4-0.6,0.4-1.1v-4.5L-92.8,417.3L-92.8,417.3z"/>
			<path class="st2" d="M-85.9,421.3c0,0.9-0.3,1.6-0.8,2.1c-0.5,0.6-1.2,0.8-2.1,0.8s-1.6-0.3-2.1-0.8c-0.5-0.6-0.8-1.3-0.8-2.1
				v-1.3c0-0.9,0.3-1.6,0.8-2.1c0.5-0.5,1.2-0.8,2.1-0.8c0.4,0,0.8,0.1,1.2,0.2s0.7,0.4,0.9,0.6c0.3-0.1,0.6-0.3,0.7-0.5
				c0.1-0.2,0.3-0.6,0.3-1h1c0,0.6-0.1,1.1-0.4,1.5c-0.3,0.4-0.6,0.7-1.1,0.9c0.1,0.2,0.1,0.4,0.2,0.6c0.1,0.2,0.1,0.4,0.1,0.7
				C-85.9,420.2-85.9,421.3-85.9,421.3z M-87.9,416.6h-1.2l-1.3-1.2l0,0h1.6L-87.9,416.6z M-87.3,420.1c0-0.5-0.1-1-0.4-1.3
				s-0.6-0.5-1.1-0.5s-0.8,0.2-1.1,0.5s-0.4,0.8-0.4,1.3v1.3c0,0.6,0.1,1,0.4,1.3s0.6,0.5,1.1,0.5s0.9-0.2,1.1-0.5
				c0.3-0.3,0.4-0.8,0.4-1.3V420.1z"/>
			<path class="st2" d="M-79.2,424.1h-1.4l-2.7-4.6l0,0v4.6h-1.4v-6.8h1.4l2.7,4.6l0,0v-4.6h1.4V424.1z"/>
			<path class="st2" d="M-72.7,423.2c-0.2,0.3-0.5,0.5-1,0.7s-1,0.3-1.7,0.3c-0.8,0-1.5-0.3-2.1-0.8c-0.6-0.5-0.8-1.2-0.8-2.1v-1.5
				c0-0.8,0.3-1.5,0.8-2.1s1.2-0.8,2-0.8c0.9,0,1.5,0.2,2,0.6c0.5,0.4,0.7,0.9,0.7,1.6l0,0h-1.3c0-0.4-0.1-0.7-0.3-0.9
				c-0.2-0.2-0.5-0.3-0.9-0.3c-0.4,0-0.8,0.2-1,0.5s-0.4,0.8-0.4,1.3v1.5c0,0.5,0.1,1,0.4,1.3s0.6,0.5,1.1,0.5c0.3,0,0.6,0,0.8-0.1
				s0.3-0.2,0.4-0.3v-1.3h-1.3v-1h2.6L-72.7,423.2L-72.7,423.2z"/>
		</g>
		<path class="st0" d="M-181.6,425.8l4.6,0c0,0-1.1-3-1.1-3.1c-0.1-0.1-1.9-4.2-1.9-4.2l-0.2-0.4l-0.5,3.5L-181.6,425.8z"/>
		<path class="st0" d="M-161.2,425.8h4.8c0,0-0.8-3.3-0.8-3.7s-0.3-3.3-0.3-3.3l-1.9,0.5l-0.6,0.3l-0.6,5.2L-161.2,425.8z"/>
		<polygon class="st0" points="-136.3,425.8 -132.6,425.8 -132.4,415.4 -136,415.5 -135.5,421 -134.9,424.1 		"/>
		<path class="st0" d="M-109.9,425.9l1-0.7l2.2-1.2l1-0.5l1.6,0.3c0,0,0.4,0.7,0.4,0.8c0,0.1,1.5,1.4,1.5,1.4H-109.9z"/>
	</g>
</g>
</svg>
